# xmcd CD database file
# Copyright (C) 1993-1998 Ti Kan
#
# Track frame offsets:
#  183
#  23458
#  47340
#  63948
#  83600
#  100588
#  124983
#  145203
#  166758
#  185138
#  206878
#
# Disc length: 3082 seconds
#
# Revision: 1
# Processed by: cddbd v1.4b41PL1 Copyright (c) Steve Scherf et al.
# Submitted via: KiC 2.1 - (C) 1996-1998 Alwin Hoogerdijk
#
DISCID=8a0c080b
DTITLE=Latimore - Slow Down
DYEAR=1900
DGENRE=
TTITLE0=Slow Down (But Don't Stop)
TTITLE1=That's The Way I Do It
TTITLE2=Get Up, Start Dancing
TTITLE3=Breakdown
TTITLE4=Careful Man
TTITLE5=All You'll Ever Need
TTITLE6=One Man, One Woman, One Love
TTITLE7=Too Many Lovers
TTITLE8=Paradise
TTITLE9=Blues Territory
TTITLE10=You Still Make Me Feel Good
EXTD=
EXTT0=
EXTT1=
EXTT2=
EXTT3=
EXTT4=
EXTT5=
EXTT6=
EXTT7=
EXTT8=
EXTT9=
EXTT10=
PLAYORDER=
